<?xml version="1.0" standalone="no"?>
<!DOCTYPE svg PUBLIC "-//W3C//DTD SVG 20010904//EN"
 "http://www.w3.org/TR/2001/REC-SVG-20010904/DTD/svg10.dtd">
<svg version="1.0" xmlns="http://www.w3.org/2000/svg"
 width="707.000000pt" height="707.000000pt" viewBox="0 0 707.000000 707.000000"
 preserveAspectRatio="xMidYMid meet">
<metadata>
Created by potrace 1.14, written by Peter Selinger 2001-2017
</metadata>
<g transform="translate(0.000000,707.000000) scale(0.100000,-0.100000)"
fill="#000000" stroke="none">
<path d="M1920 6604 c-524 -45 -950 -239 -1303 -590 -512 -509 -711 -1250
-522 -1939 79 -286 194 -509 385 -749 127 -160 209 -322 279 -556 46 -151 74
-216 129 -298 78 -114 196 -198 342 -244 72 -22 89 -23 380 -23 l305 0 68 33
c155 76 360 315 667 773 219 326 358 618 430 905 111 436 -39 781 -390 900
-196 66 -376 30 -556 -112 -85 -66 -94 -71 -105 -52 -16 28 -143 125 -205 157
-82 41 -152 55 -246 48 -179 -14 -301 -69 -424 -192 -135 -135 -188 -271 -188
-485 0 -291 109 -551 365 -870 103 -128 263 -296 300 -316 74 -38 190 0 229
76 22 43 26 103 10 145 -6 15 -56 77 -112 138 -314 345 -439 577 -440 817 -1
190 79 297 248 330 45 9 71 9 101 1 53 -14 128 -66 166 -112 l29 -37 -17 -77
c-31 -136 -9 -232 68 -307 77 -75 154 -73 233 6 80 81 101 169 70 301 -17 72
-13 81 57 135 83 62 141 84 222 84 80 -1 124 -16 179 -64 114 -100 122 -291
25 -565 -133 -377 -381 -775 -719 -1152 -61 -68 -125 -131 -143 -140 -28 -16
-60 -18 -252 -18 -261 0 -300 9 -375 84 -50 51 -62 77 -134 300 -78 240 -176
429 -311 596 -220 272 -335 546 -376 890 -14 120 -7 335 15 460 120 671 639
1197 1316 1336 126 26 385 36 516 20 652 -80 1194 -529 1388 -1151 51 -161 67
-261 73 -443 8 -229 -21 -419 -98 -646 -73 -213 -156 -363 -304 -546 -40 -49
-92 -119 -115 -155 -52 -81 -139 -260 -175 -360 -71 -199 -125 -496 -125 -689
0 -119 -16 -158 -90 -224 -130 -117 -419 -210 -780 -251 -128 -15 -437 -34
-616 -39 -93 -2 -103 -4 -137 -30 -68 -52 -94 -137 -63 -210 18 -43 78 -95
118 -101 18 -3 211 -10 428 -16 511 -13 754 -39 900 -97 78 -32 117 -59 136
-96 14 -26 13 -29 -12 -52 -41 -38 -120 -60 -306 -86 -48 -7 -304 -14 -613
-18 -603 -7 -582 -4 -636 -90 -35 -54 -38 -114 -10 -169 47 -92 79 -101 366
-102 544 -1 837 -42 1030 -143 56 -30 146 -112 250 -230 66 -74 155 -84 237
-26 34 24 68 95 68 140 0 73 -97 211 -221 314 l-70 58 57 31 c157 84 252 256
227 409 -24 144 -131 281 -271 348 -39 19 -71 36 -71 39 0 3 39 28 87 55 109
63 234 184 280 271 41 80 62 162 62 249 0 188 36 418 91 585 62 189 138 328
264 485 165 205 261 379 350 635 135 387 156 807 59 1191 -179 717 -746 1284
-1462 1463 -178 45 -464 73 -612 60z"/>
<path d="M4720 4510 l0 -60 60 0 60 0 0 -360 0 -360 -60 0 -60 0 0 -60 0 -60
400 0 400 0 0 145 0 145 -60 0 -60 0 0 -85 0 -85 -205 0 -205 0 0 155 0 155
175 0 175 0 0 60 0 60 -175 0 -175 0 0 145 0 145 205 0 205 0 0 -80 0 -80 60
0 61 0 -3 138 -3 137 -397 3 -398 2 0 -60z"/>
<path d="M5840 4510 l0 -60 55 0 c30 0 55 -2 55 -5 0 -2 -57 -164 -126 -360
l-126 -355 -59 0 -59 0 0 -60 0 -60 190 0 190 0 0 60 0 60 -61 0 c-53 0 -60 2
-55 18 4 9 21 58 39 107 l32 90 172 3 c155 2 171 1 178 -15 15 -36 65 -187 65
-195 0 -4 -27 -8 -60 -8 l-60 0 0 -60 0 -60 190 0 190 0 0 60 0 59 -56 3 -56
3 -127 355 -127 355 58 3 59 3 -3 57 -3 57 -247 3 -248 2 0 -60z m315 -250
c32 -96 60 -181 63 -187 3 -10 -27 -13 -131 -13 l-136 0 67 194 c37 107 70
192 73 188 4 -4 32 -86 64 -182z"/>
<path d="M4724 3257 c-3 -8 -4 -45 -2 -83 l3 -69 57 -3 56 -3 4 -292 c4 -313
6 -325 60 -404 19 -28 46 -50 85 -70 55 -27 65 -28 193 -28 125 0 139 2 191
26 33 16 68 42 83 62 53 70 59 107 64 420 l4 287 54 0 54 0 0 85 0 85 -190 0
-190 0 0 -85 0 -85 45 0 45 0 0 -257 c0 -142 -5 -274 -10 -294 -16 -58 -52
-84 -115 -84 -63 0 -99 26 -115 84 -5 20 -10 152 -10 294 l0 257 45 0 45 0 0
85 0 85 -225 0 c-180 0 -227 -3 -231 -13z"/>
<path d="M5650 3186 l0 -85 51 -3 52 -3 132 -388 c73 -214 137 -393 142 -398
6 -6 48 -9 94 -7 l84 3 70 208 c38 114 72 207 75 207 3 0 26 -57 50 -127 24
-71 56 -165 73 -210 l29 -83 87 0 86 0 133 399 133 400 52 3 52 3 3 83 3 82
-196 0 -195 0 0 -85 0 -85 45 0 c26 0 45 -5 45 -11 0 -16 -131 -413 -139 -422
-6 -6 -152 403 -151 426 0 4 18 7 40 7 l40 0 0 85 0 85 -172 -2 -173 -3 0 -80
0 -80 43 -3 c30 -2 42 -7 39 -16 -3 -7 -36 -108 -73 -225 l-68 -213 -73 218
c-40 120 -73 222 -73 226 0 5 20 8 45 8 l45 0 0 85 0 85 -215 0 -215 0 0 -84z"/>
</g>
</svg>
